<svg xmlns="http://www.w3.org/2000/svg" width="600" height="340" viewBox="0 0 600 340">
  <rect width="600" height="340" fill="#fff"/>
  <g font-family="Poppins,Arial,sans-serif" font-size="16">
    <rect x="40" y="40" width="220" height="110" rx="12" fill="#e6e3ff" stroke="#0a0620" stroke-width="2"/>
    <text x="150" y="65" text-anchor="middle" font-weight="bold">Hub</text>
    <rect x="60" y="90" width="180" height="40" rx="8" fill="#fff" stroke="#0a0620" stroke-width="1.5"/>
    <text x="150" y="115" text-anchor="middle">CJajlkAccount (core/cjAccount.js)</text>
    <rect x="90" y="140" width="120" height="30" rx="6" fill="#fff" stroke="#0a0620" stroke-width="1.5"/>
    <text x="150" y="160" text-anchor="middle">cjPlayerData</text>
    <rect x="340" y="40" width="220" height="110" rx="12" fill="#e6e3ff" stroke="#0a0620" stroke-width="2"/>
    <text x="450" y="65" text-anchor="middle" font-weight="bold">Jeux</text>
    <rect x="360" y="90" width="180" height="40" rx="8" fill="#fff" stroke="#0a0620" stroke-width="1.5"/>
    <text x="450" y="115" text-anchor="middle">breaker/js/*.js</text>
    <rect x="390" y="140" width="120" height="30" rx="6" fill="#fff" stroke="#0a0620" stroke-width="1.5"/>
    <text x="450" y="160" text-anchor="middle">breaker_profile</text>
    <line x1="210" y1="120" x2="360" y2="120" stroke="#0a0620" stroke-width="2" marker-end="url(#arrow)" marker-start="url(#arrow)"/>
    <line x1="450" y1="170" x2="450" y2="200" stroke="#0a0620" stroke-width="2" marker-end="url(#arrow)" marker-start="url(#arrow)"/>
    <text x="450" y="220" text-anchor="middle" font-size="14">API uniquement</text>
    <defs>
      <marker id="arrow" markerWidth="10" markerHeight="10" refX="5" refY="5" orient="auto" markerUnits="strokeWidth">
        <path d="M0,0 L10,5 L0,10 L3,5 z" fill="#0a0620"/>
      </marker>
    </defs>
  </g>
</svg>
